<?xml version="1.0" encoding="UTF-8"?>
<svg version="1.1" xmlns="http://www.w3.org/2000/svg" width="180" height="180">
<path d="M0 0 C3.60486979 0.01383408 7.20711602 -0.02031292 10.81176758 -0.05834961 C39.23975151 -0.1518045 67.86387571 5.76347411 92.9387207 19.57641602 C94.38409751 22.46716964 94.06856936 24.98160045 94.0715332 28.20922852 C94.07307907 28.87328705 94.07462494 29.53734558 94.07621765 30.2215271 C94.0786875 32.38155489 94.07244387 34.54140569 94.0637207 36.70141602 C94.05989883 37.8036853 94.05989883 37.8036853 94.05599976 38.92822266 C94.03600387 43.81123175 93.99260717 48.69366787 93.9387207 53.57641602 C93.93146973 54.46425781 93.92421875 55.35209961 93.91674805 56.2668457 C93.49704138 87.52432176 82.04899874 121.29240638 60.9387207 144.57641602 C59.97986027 145.78433111 59.02147633 146.99262473 58.0637207 148.20141602 C53.92274232 152.96467257 48.91624964 156.7330076 43.9387207 160.57641602 C42.92036133 161.38336914 41.90200195 162.19032227 40.8527832 163.02172852 C34.05222004 168.25364214 26.88156489 172.4065782 19.1887207 176.20141602 C18.32585449 176.6396167 17.46298828 177.07781738 16.57397461 177.52929688 C9.85276621 180.71279075 3.80651576 182.10052434 -3.45043945 179.82836914 C-5.86802249 178.82868078 -8.17426285 177.71365869 -10.4987793 176.51391602 C-11.32716309 176.10197998 -12.15554687 175.69004395 -13.0090332 175.265625 C-21.99779127 170.72548373 -30.14982263 165.36744085 -38.1862793 159.32641602 C-38.75588379 158.90175049 -39.32548828 158.47708496 -39.91235352 158.03955078 C-42.63080265 155.94430507 -43.95123258 154.90655618 -45.0612793 151.57641602 C-46.38822001 150.89711448 -47.72275654 150.23260124 -49.0612793 149.57641602 C-73.29983536 127.14532398 -84.51155144 90.62632171 -86.0612793 58.57641602 C-86.20773962 51.9731657 -86.15669196 45.36818297 -86.1237793 38.76391602 C-86.11875082 36.99243292 -86.11419031 35.22094842 -86.11010742 33.44946289 C-86.0992165 29.15841215 -86.08202734 24.86742995 -86.0612793 20.57641602 C-84.7412793 20.24641602 -83.4212793 19.91641602 -82.0612793 19.57641602 C-82.0612793 18.91641602 -82.0612793 18.25641602 -82.0612793 17.57641602 C-81.4012793 17.57641602 -80.7412793 17.57641602 -80.0612793 17.57641602 C-79.7312793 16.58641602 -79.4012793 15.59641602 -79.0612793 14.57641602 C-75.67146108 12.3165372 -72.86163043 11.46609728 -68.8737793 11.26391602 C-62.95145271 10.83899572 -57.62806937 8.98788401 -52.06835938 7.01074219 C-34.94598783 1.17690693 -17.98856273 -0.09589692 0 0 Z " fill="#FEF8F9" transform="translate(86.061279296875,-0.576416015625)"/>
<path d="M0 0 C3.60486979 0.01383408 7.20711602 -0.02031292 10.81176758 -0.05834961 C39.23975151 -0.1518045 67.86387571 5.76347411 92.9387207 19.57641602 C94.38409751 22.46716964 94.06856936 24.98160045 94.0715332 28.20922852 C94.07307907 28.87328705 94.07462494 29.53734558 94.07621765 30.2215271 C94.0786875 32.38155489 94.07244387 34.54140569 94.0637207 36.70141602 C94.05989883 37.8036853 94.05989883 37.8036853 94.05599976 38.92822266 C94.03600387 43.81123175 93.99260717 48.69366787 93.9387207 53.57641602 C93.93146973 54.46425781 93.92421875 55.35209961 93.91674805 56.2668457 C93.49704138 87.52432176 82.04899874 121.29240638 60.9387207 144.57641602 C59.97986027 145.78433111 59.02147633 146.99262473 58.0637207 148.20141602 C53.92274232 152.96467257 48.91624964 156.7330076 43.9387207 160.57641602 C42.92036133 161.38336914 41.90200195 162.19032227 40.8527832 163.02172852 C34.05222004 168.25364214 26.88156489 172.4065782 19.1887207 176.20141602 C18.32585449 176.6396167 17.46298828 177.07781738 16.57397461 177.52929688 C9.85276621 180.71279075 3.80651576 182.10052434 -3.45043945 179.82836914 C-5.86802249 178.82868078 -8.17426285 177.71365869 -10.4987793 176.51391602 C-11.32716309 176.10197998 -12.15554687 175.69004395 -13.0090332 175.265625 C-21.99779127 170.72548373 -30.14982263 165.36744085 -38.1862793 159.32641602 C-38.75588379 158.90175049 -39.32548828 158.47708496 -39.91235352 158.03955078 C-42.63080265 155.94430507 -43.95123258 154.90655618 -45.0612793 151.57641602 C-46.38822001 150.89711448 -47.72275654 150.23260124 -49.0612793 149.57641602 C-73.29983536 127.14532398 -84.51155144 90.62632171 -86.0612793 58.57641602 C-86.20773962 51.9731657 -86.15669196 45.36818297 -86.1237793 38.76391602 C-86.11875082 36.99243292 -86.11419031 35.22094842 -86.11010742 33.44946289 C-86.0992165 29.15841215 -86.08202734 24.86742995 -86.0612793 20.57641602 C-84.7412793 20.24641602 -83.4212793 19.91641602 -82.0612793 19.57641602 C-82.0612793 18.91641602 -82.0612793 18.25641602 -82.0612793 17.57641602 C-81.4012793 17.57641602 -80.7412793 17.57641602 -80.0612793 17.57641602 C-79.7312793 16.58641602 -79.4012793 15.59641602 -79.0612793 14.57641602 C-75.67146108 12.3165372 -72.86163043 11.46609728 -68.8737793 11.26391602 C-62.95145271 10.83899572 -57.62806937 8.98788401 -52.06835938 7.01074219 C-34.94598783 1.17690693 -17.98856273 -0.09589692 0 0 Z M-38.0612793 6.57641602 C-38.91608887 6.75833496 -39.77089844 6.94025391 -40.65161133 7.12768555 C-55.4196697 10.38650182 -69.57817114 15.74870212 -83.0612793 22.57641602 C-84.134054 66.2135902 -80.85898863 110.64339554 -49.3894043 144.14672852 C-48.62112305 144.94852539 -47.8528418 145.75032227 -47.0612793 146.57641602 C-45.93979492 147.81004883 -45.93979492 147.81004883 -44.7956543 149.06860352 C-34.21050979 160.31970083 -20.68671394 167.99072269 -6.88256836 174.67700195 C-5.36114257 175.4283334 -3.87393061 176.24843448 -2.3972168 177.08422852 C1.86625571 179.06212813 4.74683121 178.78907625 9.0871582 177.24047852 C39.39095427 164.99658557 65.14994848 141.8007903 78.17211914 111.67651367 C90.05818791 82.73995832 91.61178258 53.41041623 90.9387207 22.57641602 C82.64960605 18.26768771 74.46191212 14.3140227 65.5637207 11.38891602 C64.55349854 11.05432373 63.54327637 10.71973145 62.50244141 10.375 C30.56376915 0.25496199 -5.45178636 -0.42901256 -38.0612793 6.57641602 Z " fill="#E53647" transform="translate(86.061279296875,-0.576416015625)"/>
<path d="M0 0 C2.4375 1.5625 2.4375 1.5625 4 3 C3.67 5.31 3.34 7.62 3 10 C4.44113159 10.07516846 4.44113159 10.07516846 5.91137695 10.15185547 C41.07068442 12.00086026 41.07068442 12.00086026 57 14 C56.67 15.32 56.34 16.64 56 18 C54.79085937 17.9278125 53.58171875 17.855625 52.3359375 17.78125 C42.54074936 17.21840041 32.81429596 16.85590756 23 17 C23.49371094 18.21816406 23.98742187 19.43632813 24.49609375 20.69140625 C25.14363179 22.31494364 25.79074472 23.93865063 26.4375 25.5625 C26.92573242 26.76229492 26.92573242 26.76229492 27.42382812 27.98632812 C29.29061431 32.70140662 30.51845519 36.94717063 31 42 C28.84539841 39.84539841 28.31341093 38.51588374 27.30859375 35.68359375 C27.00373047 34.83732422 26.69886719 33.99105469 26.38476562 33.11914062 C26.07216797 32.23419922 25.75957031 31.34925781 25.4375 30.4375 C24.81363083 28.68532976 24.18745103 26.93397994 23.55859375 25.18359375 C23.14565063 24.01654907 23.14565063 24.01654907 22.72436523 22.82592773 C22.14458622 21.01241058 22.14458622 21.01241058 21 20 C20.01 22.31 19.02 24.62 18 27 C17 24 17 24 20 15 C12.74 15 5.48 15 -2 15 C-2 35.46 -2 55.92 -2 77 C2.62 77 7.24 77 12 77 C12 77.66 12 78.32 12 79 C14.31 79 16.62 79 19 79 C19 80.32 19 81.64 19 83 C11.12652596 84.08806442 3.37720997 84.11529603 -4.5625 84.0625 C-6.50479492 84.05573242 -6.50479492 84.05573242 -8.48632812 84.04882812 C-11.657601 84.03712601 -14.82877546 84.02073113 -18 84 C-18 84.99 -18 85.98 -18 87 C-18.66 85.68 -19.32 84.36 -20 83 C-22.64 83 -25.28 83 -28 83 C-28 81.68 -28 80.36 -28 79 C-26.02 79 -24.04 79 -22 79 C-22 78.34 -22 77.68 -22 77 C-17.38 77 -12.76 77 -8 77 C-8 56.54 -8 36.08 -8 15 C-15.26 15 -22.52 15 -30 15 C-29.19433594 17.13082031 -28.38867188 19.26164062 -27.55859375 21.45703125 C-26.78528705 23.52139355 -26.01517382 25.58692044 -25.24536133 27.65258789 C-24.70832831 29.0884087 -24.16797995 30.522994 -23.62426758 31.95629883 C-22.84363429 34.01588747 -22.07500338 36.07961448 -21.30859375 38.14453125 C-21.06282089 38.78526077 -20.81704803 39.4259903 -20.56382751 40.08613586 C-18.88612829 44.65838488 -18.88612829 44.65838488 -20 48 C-21.42830852 44.19295001 -22.85236055 40.38433843 -24.27246094 36.57421875 C-24.75631411 35.27788194 -25.24133485 33.9819803 -25.72753906 32.68652344 C-26.42558589 30.82601495 -27.11910947 28.96381135 -27.8125 27.1015625 C-28.23144531 25.98088379 -28.65039062 24.86020508 -29.08203125 23.70556641 C-30 21 -30 21 -30 19 C-30.66 19 -31.32 19 -32 19 C-32.33 19.66 -32.66 20.32 -33 21 C-32.67 19.35 -32.34 17.7 -32 16 C-33.28132813 16.0721875 -34.56265625 16.144375 -35.8828125 16.21875 C-45.93646874 16.76505968 -55.9287978 17.15006758 -66 17 C-66 16.01 -66 15.02 -66 14 C-59.62641289 13.03794912 -53.44070471 12.89344422 -47 13 C-47 13.33 -47 13.66 -47 14 C-49.64 14.33 -52.28 14.66 -55 15 C-50.05 14.67 -45.1 14.34 -40 14 C-42.97 13.505 -42.97 13.505 -46 13 C-46 12.67 -46 12.34 -46 12 C-38.27214866 11.03046618 -30.65666099 10.87868512 -22.875 10.9375 C-21.15410156 10.94426758 -21.15410156 10.94426758 -19.3984375 10.95117188 C-16.59890187 10.96283661 -13.79948014 10.97920386 -11 11 C-11.66 10.01 -12.32 9.02 -13 8 C-13.5 5.5625 -13.5 5.5625 -13 3 C-8.61704938 -1.06224691 -5.70289698 -1.58413805 0 0 Z " fill="#F3A2AC" transform="translate(94,28)"/>
<path d="M0 0 C6.93 0 13.86 0 21 0 C20.67 1.98 20.34 3.96 20 6 C20.99 4.68 21.98 3.36 23 2 C24.33852796 5.62310328 25.66993718 9.24878144 27 12.875 C27.3815625 13.90753906 27.763125 14.94007812 28.15625 16.00390625 C28.5171875 16.99003906 28.878125 17.97617187 29.25 18.9921875 C29.58515625 19.90339355 29.9203125 20.81459961 30.265625 21.75341797 C31 24 31 24 31 26 C31.66 26 32.32 26 33 26 C35.59089659 32.19562229 36.20139067 35.81251607 37 43 C27.1 43 17.2 43 7 43 C8.90845535 36.63848216 10.89973547 30.3007936 13 24 C10.69 30.27 8.38 36.54 6 43 C4.35 43 2.7 43 1 43 C0.67 43.66 0.34 44.32 0 45 C0 30.15 0 15.3 0 0 Z " fill="#FEF9FA" transform="translate(93,44)"/>
<path d="M0 0 C1.98 0 3.96 0 6 0 C6 20.79 6 41.58 6 63 C10.62 63 15.24 63 20 63 C20 63.66 20 64.32 20 65 C22.31 65 24.62 65 27 65 C27 66.32 27 67.64 27 69 C19.12652596 70.08806442 11.37720997 70.11529603 3.4375 70.0625 C1.49520508 70.05573242 1.49520508 70.05573242 -0.48632812 70.04882812 C-3.657601 70.03712601 -6.82877546 70.02073113 -10 70 C-10 70.99 -10 71.98 -10 73 C-10.66 71.68 -11.32 70.36 -12 69 C-14.64 69 -17.28 69 -20 69 C-20 67.68 -20 66.36 -20 65 C-18.02 65 -16.04 65 -14 65 C-14 64.34 -14 63.68 -14 63 C-9.38 63 -4.76 63 0 63 C0 42.21 0 21.42 0 0 Z " fill="#EA5E72" transform="translate(86,42)"/>
<path d="M0 0 C0.66 0 1.32 0 2 0 C3.85978005 4.90817566 5.71093652 9.81948407 7.55419922 14.73388672 C8.18237501 16.40502241 8.81289236 18.07527986 9.44580078 19.74462891 C10.35547001 22.1451846 11.2566534 24.54877947 12.15625 26.953125 C12.44060913 27.69806213 12.72496826 28.44299927 13.01794434 29.21051025 C14.32093553 32.71705094 15 35.21102695 15 39 C5.43 39 -4.14 39 -14 39 C-12.21724957 33.05749856 -10.50118581 27.42662648 -8.30078125 21.6796875 C-8.0608696 21.05015167 -7.82095795 20.42061584 -7.57377625 19.77200317 C-6.8233295 17.80505002 -6.06802919 15.8400057 -5.3125 13.875 C-4.79589779 12.52356214 -4.27961945 11.17200042 -3.76367188 9.8203125 C-2.51283904 6.54544107 -1.257653 3.2722593 0 0 Z " fill="#FEFCFC" transform="translate(62,47)"/>
<path d="M0 0 C6.27 0 12.54 0 19 0 C19 14.52 19 29.04 19 44 C13 42 13 42 11.74024963 40.34378052 C11.5018486 39.68522064 11.26344757 39.02666077 11.01782227 38.34814453 C10.73475723 37.60041779 10.4516922 36.85269104 10.16004944 36.08230591 C9.88164719 35.27397308 9.60324493 34.46564026 9.31640625 33.6328125 C8.85946632 32.38611282 8.85946632 32.38611282 8.39329529 31.11422729 C7.75487229 29.35793848 7.12767584 27.59753362 6.51098633 25.83349609 C5.56522321 23.1327764 4.58376302 20.44721489 3.59570312 17.76171875 C2.97962527 16.05285533 2.36562182 14.34324232 1.75390625 12.6328125 C1.46133438 11.82852814 1.16876251 11.02424377 0.86732483 10.19558716 C0.47582497 9.06454056 0.47582497 9.06454056 0.07641602 7.91064453 C-0.15641586 7.25049347 -0.38924774 6.59034241 -0.62913513 5.91018677 C-1 4 -1 4 0 0 Z " fill="#FEFDFD" transform="translate(66,44)"/>
<path d="M0 0 C3.96 0 7.92 0 12 0 C11.52396226 2.12570312 11.04407402 4.25054427 10.5625 6.375 C10.29566406 7.55835937 10.02882813 8.74171875 9.75390625 9.9609375 C9 13 9 13 8 15 C8.66 15 9.32 15 10 15 C10.28875 14.360625 10.5775 13.72125 10.875 13.0625 C12 11 12 11 14 10 C13.34 11.32 12.68 12.64 12 14 C13.134375 14.474375 14.26875 14.94875 15.4375 15.4375 C19 17 19 17 20 18 C20.45232816 23.20177384 20.45232816 23.20177384 18.9375 25.875 C15.99772876 27.58196395 13.32129197 27.18799766 10 27 C10 28.65 10 30.3 10 32 C9.34 31.67 8.68 31.34 8 31 C8.33 29.68 8.66 28.36 9 27 C6.56282742 27.27034634 6.56282742 27.27034634 4 28 C3.34 28.99 2.68 29.98 2 31 C2 29.68 2 28.36 2 27 C0.906875 27.061875 -0.18625 27.12375 -1.3125 27.1875 C-5 27 -5 27 -6.9375 25.8125 C-8.43153143 23.26385815 -8.56710464 21.90641128 -8 19 C-5.75 16.6875 -5.75 16.6875 -3 15 C-1.68 15 -0.36 15 1 15 C1.33 14.34 1.66 13.68 2 13 C2.33 13 2.66 13 3 13 C2.01 8.71 1.02 4.42 0 0 Z " fill="#E84B61" transform="translate(83,111)"/>
<path d="M0 0 C1.29313614 -0.01666969 1.29313614 -0.01666969 2.61239624 -0.03367615 C5.42797839 -0.06093307 8.24288489 -0.06706056 11.05859375 -0.06640625 C12.01404083 -0.06747375 12.96948792 -0.06854126 13.95388794 -0.06964111 C29.37396743 -0.04466722 43.59564863 1.13499423 58.49609375 5.37109375 C59.77830811 5.71599854 59.77830811 5.71599854 61.08642578 6.06787109 C72.723662 9.23067448 83.91933703 13.54469179 94.49609375 19.37109375 C96.87585528 24.13061681 95.73841201 31.05414473 95.74609375 36.37109375 C95.74843018 37.09474121 95.7507666 37.81838867 95.75317383 38.56396484 C95.76685404 49.73945134 95.04179334 60.46095264 92.49609375 71.37109375 C92.16609375 71.37109375 91.83609375 71.37109375 91.49609375 71.37109375 C91.49609375 55.20109375 91.49609375 39.03109375 91.49609375 22.37109375 C62.23056166 9.56742346 35.63868696 3.74174833 3.80859375 2.80859375 C2.41340214 2.76527288 1.01821973 2.72165497 -0.37695312 2.67773438 C-3.75252585 2.57261273 -7.12816018 2.47046498 -10.50390625 2.37109375 C-7.48562416 -0.64718834 -4.05185454 0.02734115 0 0 Z " fill="#E0102F" transform="translate(84.50390625,-0.37109375)"/>
<path d="M0 0 C1.20171204 3.60513612 0.70719075 4.43559272 -0.65234375 7.88671875 C-1.14335571 9.154552 -1.14335571 9.154552 -1.64428711 10.44799805 C-2.28442749 12.05155151 -2.28442749 12.05155151 -2.9375 13.6875 C-4.278125 17.090625 -5.61875 20.49375 -7 24 C2.9 24 12.8 24 23 24 C22.505 21.03 22.505 21.03 22 18 C24 20 24 20 25 23 C27.00016466 24.20882096 27.00016466 24.20882096 29 25 C27.1337839 28.54581059 25.8659328 30.6710856 22 32 C21.01 32 20.02 32 19 32 C19 32.99 19 33.98 19 35 C11.74 35 4.48 35 -3 35 C-3 34.01 -3 33.02 -3 32 C-3.9075 31.731875 -4.815 31.46375 -5.75 31.1875 C-8.74369369 30.09365038 -10.71640425 29.19576514 -13 27 C-13 26.01 -13 25.02 -13 24 C-11.35 24 -9.7 24 -8 24 C-7.79375 22.824375 -7.5875 21.64875 -7.375 20.4375 C-5.82493241 13.3254252 -2.80308268 6.69037658 0 0 Z " fill="#E63D55" transform="translate(107,63)"/>
<path d="M0 0 C2.12202454 2.12202454 2.50290601 3.20929922 3.375 6 C4.51105227 9.29845666 4.51105227 9.29845666 7.1875 11.5 C7.785625 11.665 8.38375 11.83 9 12 C8.67 12.99 8.34 13.98 8 15 C7.01 14.67 6.02 14.34 5 14 C2.63477442 14.92203709 0.29598193 15.91698965 -2 17 C-1.34 17.66 -0.68 18.32 0 19 C-0.495 20.485 -0.495 20.485 -1 22 C-8.26 22 -15.52 22 -23 22 C-23.33 21.01 -23.66 20.02 -24 19 C-26.00396695 17.8641308 -28.05933214 17.03802549 -30.1875 16.16015625 C-32 15 -32 15 -32.75 12.87109375 C-32.87375 11.94490234 -32.87375 11.94490234 -33 11 C-28.82116978 9.96314739 -25.02366716 9.9620864 -20.73046875 10.12109375 C-19.70896477 10.15651024 -19.70896477 10.15651024 -18.66682434 10.19264221 C-16.50681088 10.26878386 -14.34720172 10.35301819 -12.1875 10.4375 C-10.71681619 10.49077039 -9.24611307 10.54351039 -7.77539062 10.59570312 C-4.18334976 10.72433089 -0.59162595 10.86021472 3 11 C2.7834375 10.45730469 2.566875 9.91460937 2.34375 9.35546875 C2.0653125 8.64003906 1.786875 7.92460938 1.5 7.1875 C1.2215625 6.47980469 0.943125 5.77210937 0.65625 5.04296875 C0 3 0 3 0 0 Z " fill="#E53650" transform="translate(75,76)"/>
<path d="M0 0 C-2.45107265 2.98281361 -4.31623799 3.49426704 -8.09375 3.9921875 C-9.1144458 4.13688477 -10.1351416 4.28158203 -11.18676758 4.43066406 C-12.28013428 4.57729492 -13.37350098 4.72392578 -14.5 4.875 C-31.51144845 7.4013443 -46.84699055 11.57964154 -62.70703125 18.23046875 C-70.12132082 21.29861778 -70.12132082 21.29861778 -73 22 C-73.99 21.34 -74.98 20.68 -76 20 C-74.68 19.67 -73.36 19.34 -72 19 C-72 18.34 -72 17.68 -72 17 C-71.34 17 -70.68 17 -70 17 C-69.67 16.01 -69.34 15.02 -69 14 C-65.61018178 11.74012119 -62.80035113 10.88968126 -58.8125 10.6875 C-53.60167694 10.31362929 -49.04312353 8.83336807 -44.125 7.1875 C-29.65332537 2.41773951 -15.31554468 -0.91284703 0 0 Z " fill="#E32136" transform="translate(76,0)"/>
<path d="M0 0 C0.99 0 1.98 0 3 0 C3.00410889 1.09538086 3.00821777 2.19076172 3.01245117 3.31933594 C3.16394476 30.32181362 4.0663657 56.42047303 13.08203125 82.19140625 C14 85 14 85 14 88 C13.01 88 12.02 88 11 88 C2.98164178 64.2048557 -0.19111416 42.77211425 -0.0625 17.6875 C-0.05747105 15.96419402 -0.05291063 14.24088661 -0.04882812 12.51757812 C-0.037942 8.34501591 -0.02075565 4.17252432 0 0 Z " fill="#E22038" transform="translate(0,21)"/>
<path d="M0 0 C0 0.99 0 1.98 0 3 C-0.33 3.33 -0.66 3.66 -1 4 C0.134375 4.474375 1.26875 4.94875 2.4375 5.4375 C6 7 6 7 7 8 C7.45232816 13.20177384 7.45232816 13.20177384 5.9375 15.875 C2.99772876 17.58196395 0.32129197 17.18799766 -3 17 C-3 18.65 -3 20.3 -3 22 C-3.66 21.67 -4.32 21.34 -5 21 C-4.67 19.68 -4.34 18.36 -4 17 C-6.43717258 17.27034634 -6.43717258 17.27034634 -9 18 C-9.66 18.99 -10.32 19.98 -11 21 C-11 19.68 -11 18.36 -11 17 C-12.093125 17.061875 -13.18625 17.12375 -14.3125 17.1875 C-18 17 -18 17 -19.9375 15.8125 C-21.32851983 13.43958382 -21.21917317 11.70313576 -21 9 C-20.34 8.67 -19.68 8.34 -19 8 C-19.04125 8.78375 -19.0825 9.5675 -19.125 10.375 C-19.28728734 13.16116119 -19.28728734 13.16116119 -17 15 C-13.60402937 15.21676408 -11.24221555 15.08073852 -8 14 C-7.34 14.33 -6.68 14.66 -6 15 C-6 14.34 -6 13.68 -6 13 C-6.66 13 -7.32 13 -8 13 C-8.33 10.69 -8.66 8.38 -9 6 C-8.05125 5.9175 -7.1025 5.835 -6.125 5.75 C-2.90618118 5.35476069 -2.90618118 5.35476069 -1.6875 3 C-1.460625 2.34 -1.23375 1.68 -1 1 C-0.67 0.67 -0.34 0.34 0 0 Z " fill="#E9596D" transform="translate(96,121)"/>
<path d="M0 0 C1.19496094 -0.00386719 1.19496094 -0.00386719 2.4140625 -0.0078125 C4.375 0.125 4.375 0.125 5.375 1.125 C5.41580783 3.12458364 5.41754356 5.12545254 5.375 7.125 C6.365 7.455 7.355 7.785 8.375 8.125 C8.6875 10.4375 8.6875 10.4375 8.375 13.125 C4.72843718 16.2190533 1.04077113 16.66757146 -3.625 17.125 C-5.54971317 11.78664461 -7.02391424 6.77520618 -7.625 1.125 C-4.78285932 0.17761977 -2.94891609 -0.00960559 0 0 Z " fill="#E32745" transform="translate(39.625,13.875)"/>
<path d="M0 0 C1.98 0 3.96 0 6 0 C6 20.79 6 41.58 6 63 C4.68 62.67 3.36 62.34 2 62 C2.33 41.87 2.66 21.74 3 1 C2.01 0.67 1.02 0.34 0 0 Z " fill="#DF0326" transform="translate(86,42)"/>
<path d="M0 0 C-0.66 0.33 -1.32 0.66 -2 1 C-2 1.66 -2 2.32 -2 3 C5.26 3 12.52 3 20 3 C20 3.33 20 3.66 20 4 C12.74 4 5.48 4 -2 4 C-1.19433594 6.13082031 -0.38867188 8.26164062 0.44140625 10.45703125 C1.21471295 12.52139355 1.98482618 14.58692044 2.75463867 16.65258789 C3.29167169 18.0884087 3.83202005 19.522994 4.37573242 20.95629883 C5.15636571 23.01588747 5.92499662 25.07961448 6.69140625 27.14453125 C6.93717911 27.78526077 7.18295197 28.4259903 7.43617249 29.08613586 C9.11387171 33.65838488 9.11387171 33.65838488 8 37 C6.57169148 33.19295001 5.14763945 29.38433843 3.72753906 25.57421875 C3.24368589 24.27788194 2.75866515 22.9819803 2.27246094 21.68652344 C1.57441411 19.82601495 0.88089053 17.96381135 0.1875 16.1015625 C-0.23144531 14.98088379 -0.65039062 13.86020508 -1.08203125 12.70556641 C-2 10 -2 10 -2 8 C-2.66 8 -3.32 8 -4 8 C-4.33 8.66 -4.66 9.32 -5 10 C-4.67 8.35 -4.34 6.7 -4 5 C-5.28132813 5.0721875 -6.56265625 5.144375 -7.8828125 5.21875 C-17.93646874 5.76505968 -27.9287978 6.15006758 -38 6 C-38 5.01 -38 4.02 -38 3 C-31.62641289 2.03794912 -25.44070471 1.89344422 -19 2 C-19 2.33 -19 2.66 -19 3 C-21.64 3.33 -24.28 3.66 -27 4 C-22.05 3.67 -17.1 3.34 -12 3 C-14.97 2.505 -14.97 2.505 -18 2 C-18 1.67 -18 1.34 -18 1 C-11.96445452 0.30739642 -6.07593562 -0.11251733 0 0 Z " fill="#E9576C" transform="translate(66,39)"/>
<path d="M0 0 C3.05418788 0.63932846 5.47116374 1.66860249 8.1953125 3.1796875 C9.39414063 3.83130859 9.39414063 3.83130859 10.6171875 4.49609375 C12.26777205 5.40365815 13.9162752 6.31502002 15.5625 7.23046875 C24.8055178 12.5421879 24.8055178 12.5421879 35.06689453 13.66503906 C37.2894197 12.90943912 37.2894197 12.90943912 40.5 11.1875 C46.94354839 8 46.94354839 8 49 8 C48.80859375 9.828125 48.80859375 9.828125 48 12 C45.84765625 13.484375 45.84765625 13.484375 43.0625 14.75 C41.71865234 15.39195312 41.71865234 15.39195312 40.34765625 16.046875 C31.63966565 18.52616287 25.11383837 16.81574464 17.25 12.75 C16.43917969 12.35425781 15.62835938 11.95851562 14.79296875 11.55078125 C1.82912844 5.12155963 1.82912844 5.12155963 0 0 Z " fill="#E3283D" transform="translate(58,163)"/>
<path d="M0 0 C1.32 0 2.64 0 4 0 C5.65 3.3 7.3 6.6 9 10 C10.53521956 7.69717067 11.58357909 5.82137765 12.625 3.3125 C13.07875 2.219375 13.5325 1.12625 14 0 C15.32 0 16.64 0 18 0 C18 5.28 18 10.56 18 16 C17.01 16 16.02 16 15 16 C14.67 13.36 14.34 10.72 14 8 C13.01 10.64 12.02 13.28 11 16 C10.01 16 9.02 16 8 16 C6.68 13.03 5.36 10.06 4 7 C4 10.3 4 13.6 4 17 C3.01 17 2.02 17 1 17 C0.67 11.39 0.34 5.78 0 0 Z " fill="#E42A47" transform="translate(75,7)"/>
<path d="M0 0 C2.475 0.99 2.475 0.99 5 2 C5.61916858 36.48927751 5.61916858 36.48927751 2 52 C1.67 52 1.34 52 1 52 C1.00222061 51.3927861 1.00444122 50.7855722 1.00672913 50.15995789 C1.02882312 43.84989001 1.04392387 37.53983309 1.05493164 31.22973633 C1.05996575 28.873612 1.06679346 26.5174908 1.07543945 24.16137695 C1.0875453 20.7781497 1.09323749 17.39496368 1.09765625 14.01171875 C1.10281754 12.95538742 1.10797882 11.89905609 1.11329651 10.81071472 C1.11337204 9.82992447 1.11344757 8.84913422 1.11352539 7.83862305 C1.115746 6.97480515 1.11796661 6.11098724 1.12025452 5.22099304 C1.08873316 2.82540879 1.08873316 2.82540879 0 0 Z " fill="#E1112F" transform="translate(175,19)"/>
<path d="M0 0 C1.875 1.0625 1.875 1.0625 3 3 C3.4375 6.5 3.4375 6.5 3 10 C1.375 12 1.375 12 -1 13 C-4.125 12.875 -4.125 12.875 -7 12 C-9.31282587 8.53076119 -9.42478586 7.07794425 -9 3 C-6.79086995 -0.68188342 -4.01844539 -0.50230567 0 0 Z " fill="#FDF0F2" transform="translate(131,129)"/>
<path d="M0 0 C1.875 1.125 1.875 1.125 3 3 C3 6.5 3 6.5 2 10 C-0.375 12 -0.375 12 -3 13 C-6.53233755 11.82255415 -6.86308075 11.04394359 -8.6875 7.9375 C-9.12449219 7.20402344 -9.56148438 6.47054687 -10.01171875 5.71484375 C-10.33785156 5.14894531 -10.66398437 4.58304688 -11 4 C-5.55548743 -1.62599632 -5.55548743 -1.62599632 0 0 Z " fill="#E42D4A" transform="translate(105,153)"/>
<path d="M0 0 C0.66 0.33 1.32 0.66 2 1 C1.67 1.99 1.34 2.98 1 4 C0.01 4.33 -0.98 4.66 -2 5 C-1.34 5.66 -0.68 6.32 0 7 C-0.33 7.99 -0.66 8.98 -1 10 C-8.26 10 -15.52 10 -23 10 C-23.33 8.68 -23.66 7.36 -24 6 C-22.77023438 5.79503906 -21.54046875 5.59007813 -20.2734375 5.37890625 C-19.48839844 5.24806641 -18.70335937 5.11722656 -17.89453125 4.98242188 C-13.03857422 4.1730957 -13.03857422 4.1730957 -8.18261719 3.36376953 C-7.10222168 3.18370361 -7.10222168 3.18370361 -6 3 C-4 2.66666667 -2 2.33333333 0 2 C0 1.34 0 0.68 0 0 Z " fill="#E00E2F" transform="translate(75,88)"/>
<path d="M0 0 C5.28 0 10.56 0 16 0 C16 0.33 16 0.66 16 1 C18.475 1.495 18.475 1.495 21 2 C20.01 2.495 20.01 2.495 19 3 C19 3.99 19 4.98 19 6 C11.74 6 4.48 6 -3 6 C-3 4.68 -3 3.36 -3 2 C-2.01 2 -1.02 2 0 2 C0 1.34 0 0.68 0 0 Z " fill="#E11131" transform="translate(107,92)"/>
<path d="M0 0 C5.36879616 0.59653291 10.113572 1.85710209 15.1875 3.6875 C16.29146118 4.08026123 16.29146118 4.08026123 17.41772461 4.48095703 C23.87905767 6.83908728 29.95287381 9.71427826 36 13 C35.67 13.66 35.34 14.32 35 15 C31.93497571 15 30.46710338 14.51528907 27.68359375 13.35546875 C26.83603516 13.00806641 25.98847656 12.66066406 25.11523438 12.30273438 C24.23158203 11.93470703 23.34792969 11.56667969 22.4375 11.1875 C15.71233772 8.38914429 9.01867642 5.96244339 2 4 C2.33 3.34 2.66 2.68 3 2 C2.01 1.34 1.02 0.68 0 0 Z " fill="#E3213F" transform="translate(143,6)"/>
<path d="M0 0 C0.79921875 0.00902344 1.5984375 0.01804687 2.421875 0.02734375 C3.02515625 0.03894531 3.6284375 0.05054688 4.25 0.0625 C1.48776722 2.82473278 -0.95706617 2.64106291 -4.75 3.0625 C-4.75 4.3825 -4.75 5.7025 -4.75 7.0625 C-1.45 6.7325 1.85 6.4025 5.25 6.0625 C5.25 6.7225 5.25 7.3825 5.25 8.0625 C2.29335481 9.5408226 -0.49229737 9.12282783 -3.75 9.0625 C-3.75 11.0425 -3.75 13.0225 -3.75 15.0625 C1.695 14.0725 1.695 14.0725 7.25 13.0625 C7.25 14.0525 7.25 15.0425 7.25 16.0625 C0.815 16.5575 0.815 16.5575 -5.75 17.0625 C-8.75 4.4375 -8.75 4.4375 -8.75 1.0625 C-5.75519083 0.1901588 -3.11424089 -0.04579766 0 0 Z " fill="#E21B3B" transform="translate(61.75,8.9375)"/>
<path d="M0 0 C0.33 0 0.66 0 1 0 C1.33 20.13 1.66 40.26 2 61 C4.97 61.33 7.94 61.66 11 62 C11.33 62.66 11.66 63.32 12 64 C3.75 64 -4.5 64 -13 64 C-12.67 63.34 -12.34 62.68 -12 62 C-8.04 62 -4.08 62 0 62 C0 41.54 0 21.08 0 0 Z " fill="#EB6477" transform="translate(86,43)"/>
<path d="M0 0 C0.66 0 1.32 0 2 0 C2 2.31 2 4.62 2 7 C4.31 7.33 6.62 7.66 9 8 C9.45375 7.175 9.9075 6.35 10.375 5.5 C10.91125 4.675 11.4475 3.85 12 3 C12.66 3 13.32 3 14 3 C13.47606294 8.86809507 12.23891142 13.54873741 10 19 C9.34 19 8.68 19 8 19 C8.33 16.36 8.66 13.72 9 11 C6.36 10.67 3.72 10.34 1 10 C0.67 11.98 0.34 13.96 0 16 C-0.99 16 -1.98 16 -3 16 C-2.69075786 13.89535207 -2.3774944 11.7912947 -2.0625 9.6875 C-1.88847656 8.51574219 -1.71445313 7.34398437 -1.53515625 6.13671875 C-1 3 -1 3 0 0 Z " fill="#E32241" transform="translate(134,11)"/>
<path d="M0 0 C4.39581876 -0.02950823 8.7916114 -0.04696682 13.1875 -0.0625 C15.02731445 -0.07506836 15.02731445 -0.07506836 16.90429688 -0.08789062 C24.98556584 -0.10921323 32.95353136 0.2498983 41 1 C41 1.33 41 1.66 41 2 C33.08 2.495 33.08 2.495 25 3 C25.49371094 4.21816406 25.98742187 5.43632813 26.49609375 6.69140625 C27.14363179 8.31494364 27.79074472 9.93865063 28.4375 11.5625 C28.92573242 12.76229492 28.92573242 12.76229492 29.42382812 13.98632812 C31.29061431 18.70140662 32.51845519 22.94717063 33 28 C30.84539841 25.84539841 30.31341093 24.51588374 29.30859375 21.68359375 C28.85129883 20.41418945 28.85129883 20.41418945 28.38476562 19.11914062 C28.07216797 18.23419922 27.75957031 17.34925781 27.4375 16.4375 C26.81363083 14.68532976 26.18745103 12.93397994 25.55859375 11.18359375 C25.28329834 10.40556396 25.00800293 9.62753418 24.72436523 8.82592773 C24.14458622 7.01241058 24.14458622 7.01241058 23 6 C22.01 8.31 21.02 10.62 20 13 C19 10 19 10 22 1 C14.74 1 7.48 1 0 1 C0 0.67 0 0.34 0 0 Z " fill="#E9556A" transform="translate(92,42)"/>
<path d="M0 0 C0.33 1.32 0.66 2.64 1 4 C-1.55575038 5.20429601 -4.11791464 6.38840747 -6.6875 7.5625 C-7.7693457 8.07586914 -7.7693457 8.07586914 -8.87304688 8.59960938 C-12.93481724 10.43575214 -15.57849239 11.59592878 -20 10 C-18.68 9.34 -17.36 8.68 -16 8 C-16 7.34 -16 6.68 -16 6 C-15.34 6 -14.68 6 -14 6 C-13.67 5.01 -13.34 4.02 -13 3 C-8.56575777 0.14941571 -5.2162083 -0.3129725 0 0 Z " fill="#E32D43" transform="translate(20,11)"/>
<path d="M0 0 C2 3 2 3 2 6 C2.66 6 3.32 6 4 6 C4 6.66 4 7.32 4 8 C2.23186888 8.24915939 0.46025018 8.47366632 -1.3125 8.6875 C-2.29863281 8.81511719 -3.28476563 8.94273437 -4.30078125 9.07421875 C-7 9 -7 9 -8.8671875 7.68359375 C-10 6 -10 6 -9.8125 3.375 C-8.22529016 -1.26453647 -4.31644739 -0.30831767 0 0 Z " fill="#FDEFF1" transform="translate(86,128)"/>
<path d="M0 0 C2.97 0 5.94 0 9 0 C7.42048784 6.31804864 2.72964607 10.65383875 -2 15 C-2.66 15 -3.32 15 -4 15 C-3.52396226 12.87429688 -3.04407402 10.74945573 -2.5625 8.625 C-2.29566406 7.44164063 -2.02882813 6.25828125 -1.75390625 5.0390625 C-1 2 -1 2 0 0 Z " fill="#FADBDF" transform="translate(95,111)"/>
<path d="M0 0 C9.9 0 19.8 0 30 0 C29.67 0.66 29.34 1.32 29 2 C25.07226248 3.14170067 21.25421021 3.10357788 17.1875 3.0625 C16.02605469 3.05347656 14.86460938 3.04445313 13.66796875 3.03515625 C12.78753906 3.02355469 11.90710938 3.01195313 11 3 C11 3.66 11 4.32 11 5 C6.62886504 4.49172849 3.61004338 3.54826592 0 1 C0 0.67 0 0.34 0 0 Z " fill="#FDF6F7" transform="translate(96,89)"/>
<path d="M0 0 C4.29 0.33 8.58 0.66 13 1 C13 1.66 13 2.32 13 3 C6.375 3.125 6.375 3.125 3 2 C3 3.65 3 5.3 3 7 C5.31 7 7.62 7 10 7 C10.33 7.99 10.66 8.98 11 10 C8.03 9.67 5.06 9.34 2 9 C2 11.31 2 13.62 2 16 C1.01 16 0.02 16 -1 16 C-0.67 10.72 -0.34 5.44 0 0 Z " fill="#E5324E" transform="translate(113,8)"/>
<path d="M0 0 C1.97380176 1.75449045 2.87305116 2.98261268 3.6875 5.5 C3.3125 7.75 3.3125 7.75 2.6875 9.5 C1.924375 9.5825 1.16125 9.665 0.375 9.75 C-2.83623261 10.64615794 -3.60624499 11.71611025 -5.3125 14.5 C-5.3125 11.53 -5.3125 8.56 -5.3125 5.5 C-6.9625 5.83 -8.6125 6.16 -10.3125 6.5 C-9.0345661 2.6661983 -7.53104435 2.00635774 -4.09375 0.16796875 C-2.3125 -0.5 -2.3125 -0.5 0 0 Z " fill="#E32946" transform="translate(41.3125,109.5)"/>
<path d="M0 0 C3.5 0.25 3.5 0.25 5.5 2.25 C5.8125 4.75 5.8125 4.75 5.5 7.25 C2.5 9.25 2.5 9.25 -1.125 8.9375 C-4.5 8.25 -4.5 8.25 -5.5 7.25 C-5.6875 4.8125 -5.6875 4.8125 -5.5 2.25 C-3.5 0.25 -3.5 0.25 0 0 Z " fill="#FEF8F9" transform="translate(96.5,127.75)"/>
<path d="M0 0 C3.14010942 0.71646601 6.26811732 1.46459191 9.390625 2.25390625 C9.390625 2.91390625 9.390625 3.57390625 9.390625 4.25390625 C10.710625 4.58390625 12.030625 4.91390625 13.390625 5.25390625 C10.2441656 6.25359054 8.11842437 6.20969437 4.90625 5.51171875 C4.05289063 5.33253906 3.19953125 5.15335937 2.3203125 4.96875 C1.43601563 4.77410156 0.55171875 4.57945312 -0.359375 4.37890625 C-6.43729349 3.07134218 -12.42612614 1.92974973 -18.609375 1.25390625 C-13.08395166 -3.67175982 -6.74511144 -1.39428169 0 0 Z " fill="#E11430" transform="translate(133.609375,2.74609375)"/>
<path d="M0 0 C9.57 0 19.14 0 29 0 C28.67 0.66 28.34 1.32 28 2 C23.75263715 3.41578762 19.5752734 3.49045347 15.125 3.75 C13.77728516 3.85248047 13.77728516 3.85248047 12.40234375 3.95703125 C7.42103856 4.24398975 4.01646929 4.39467279 0 1 C0 0.67 0 0.34 0 0 Z " fill="#FEF8F8" transform="translate(44,89)"/>
<path d="M0 0 C2.4375 1.5625 2.4375 1.5625 4 3 C3.67 5.31 3.34 7.62 3 10 C4.65 10 6.3 10 8 10 C8 10.33 8 10.66 8 11 C5.69 11 3.38 11 1 11 C0.34 8.69 -0.32 6.38 -1 4 C-5.65052872 3.73067479 -5.65052872 3.73067479 -10 5 C-10.33 5.99 -10.66 6.98 -11 8 C-11.66 8 -12.32 8 -13 8 C-13.375 5.75 -13.375 5.75 -13 3 C-8.61704938 -1.06224691 -5.70289698 -1.58413805 0 0 Z " fill="#F194A0" transform="translate(94,28)"/>
<path d="M0 0 C2.64 0 5.28 0 8 0 C8.69640673 2.12209776 9.38188357 4.24778527 10.0625 6.375 C10.44535156 7.55835937 10.82820313 8.74171875 11.22265625 9.9609375 C12 13 12 13 11 15 C5.30896131 10.73172098 1.93279393 6.92584491 0 0 Z " fill="#FAD9DD" transform="translate(75,111)"/>
<path d="M0 0 C0.86625 0.3403125 0.86625 0.3403125 1.75 0.6875 C2.4375 3 2.4375 3 2.75 5.6875 C1.75 6.6875 0.75 7.6875 -0.25 8.6875 C-0.01956136 11.34216049 -0.01956136 11.34216049 0.75 13.6875 C-3.33851671 12.3246611 -4.79626098 10.16363028 -7.25 6.6875 C-7.3125 4.5 -7.3125 4.5 -6.25 2.6875 C-3.12804878 -0.43445122 -3.12804878 -0.43445122 0 0 Z " fill="#E32543" transform="translate(118.25,139.3125)"/>
<path d="M0 0 C9.9 0.33 19.8 0.66 30 1 C30 1.66 30 2.32 30 3 C20.1 3.33 10.2 3.66 0 4 C0 2.68 0 1.36 0 0 Z " fill="#EE7C8B" transform="translate(66,107)"/>
<path d="M0 0 C3.98671063 1.36687222 6.88494633 3.15195093 10 6 C10 6.66 10 7.32 10 8 C6.37 8.33 2.74 8.66 -1 9 C-0.01 9.61875 0.98 10.2375 2 10.875 C2.99 11.57625 3.98 12.2775 5 13 C5 13.66 5 14.32 5 15 C1.01457486 13.63356852 -1.92539863 11.89890986 -5 9 C-5 8.01 -5 7.02 -5 6 C-0.545 5.505 -0.545 5.505 4 5 C3.01 4.319375 3.01 4.319375 2 3.625 C1.34 3.08875 0.68 2.5525 0 2 C0 1.34 0 0.68 0 0 Z " fill="#E00A2C" transform="translate(135,116)"/>
<path d="M0 0 C0.99 0 1.98 0 3 0 C2.67 11.88 2.34 23.76 2 36 C-0.42869909 32.35695136 -0.25675675 29.69277661 -0.1953125 25.48828125 C-0.1924826 24.76005661 -0.18965271 24.03183197 -0.18673706 23.28153992 C-0.17555257 20.95835863 -0.15045166 18.63556453 -0.125 16.3125 C-0.11496794 14.7363337 -0.10584248 13.16016135 -0.09765625 11.58398438 C-0.07561896 7.72250733 -0.04110141 3.86131929 0 0 Z " fill="#DB0325" transform="translate(0,21)"/>
<path d="M0 0 C2.64 0 5.28 0 8 0 C7.68917128 1.75029762 7.37626821 3.50022694 7.0625 5.25 C6.88847656 6.22453125 6.71445313 7.1990625 6.53515625 8.203125 C6.09620271 10.49721795 5.59651408 12.74291971 5 15 C4.34 15 3.68 15 3 15 C2.49564306 13.0636296 1.99666126 11.12585854 1.5 9.1875 C1.2215625 8.10855469 0.943125 7.02960938 0.65625 5.91796875 C0 3 0 3 0 0 Z " fill="#FDF4F5" transform="translate(85,111)"/>
<path d="M0 0 C0 0.66 0 1.32 0 2 C-0.99 2.66 -1.98 3.32 -3 4 C-3.33343551 6.54207971 -3.33343551 6.54207971 -3 9 C-1.93354885 10.29633621 -1.93354885 10.29633621 0.5625 10.0625 C1.366875 10.041875 2.17125 10.02125 3 10 C3.66 8.02 4.32 6.04 5 4 C3.68 4.99 2.36 5.98 1 7 C1.33 5.02 1.66 3.04 2 1 C4.475 1.99 4.475 1.99 7 3 C6.40806045 9.27455919 6.40806045 9.27455919 4.875 12 C1.75687573 13.66299961 -0.68783759 12.84309589 -4 12 C-6 9 -6 9 -5.8125 5.4375 C-4.93537158 1.72657207 -4.10185286 0 0 0 Z " fill="#E6405A" transform="translate(151,92)"/>
<path d="M0 0 C0.33 0 0.66 0 1 0 C1.33 16.5 1.66 33 2 50 C1.67 50 1.34 50 1 50 C1 47.69 1 45.38 1 43 C0.34 43 -0.32 43 -1 43 C-1.33 39.04 -1.66 35.08 -2 31 C-1.67 31 -1.34 31 -1 31 C-0.67 20.77 -0.34 10.54 0 0 Z " fill="#E4314B" transform="translate(2,23)"/>
<path d="M0 0 C-0.99 4.29 -1.98 8.58 -3 13 C-3.66 12.67 -4.32 12.34 -5 12 C-5.625 9.4375 -5.625 9.4375 -6 7 C-9.47147842 6.25042843 -9.47147842 6.25042843 -13 6 C-13 5.34 -13 4.68 -13 4 C-11.40233897 3.13372601 -9.79660056 2.28233535 -8.1875 1.4375 C-7.29417969 0.96183594 -6.40085937 0.48617187 -5.48046875 -0.00390625 C-3 -1 -3 -1 0 0 Z " fill="#E42A48" transform="translate(74,146)"/>
<path d="M0 0 C3.5625 0.3125 3.5625 0.3125 5.5 1.4375 C7.09240283 4.24762264 7.01569325 6.14014724 6.5625 9.3125 C4.57927007 12.1037125 3.43263879 13.13847224 0.0625 13.8125 C-2.4375 13.3125 -2.4375 13.3125 -4.8125 11.75 C-6.4375 9.3125 -6.4375 9.3125 -6.3125 5.6875 C-5.14951423 1.20169775 -4.66151968 0.42377452 0 0 Z M-4.4375 4.3125 C-4.77083333 6.8125 -4.77083333 6.8125 -4.4375 9.3125 C-2.61046773 11.5616908 -2.61046773 11.5616908 0.0625 11.5625 C2.73546773 11.5616908 2.73546773 11.5616908 4.5625 9.3125 C4.81255386 6.27067107 4.81255386 6.27067107 4.5625 3.3125 C3.45083136 1.98062207 3.45083136 1.98062207 0.625 2.125 C-2.54642859 1.97971267 -2.54642859 1.97971267 -4.4375 4.3125 Z " fill="#E42E4B" transform="translate(162.4375,47.6875)"/>
<path d="M0 0 C15.84 0.495 15.84 0.495 32 1 C31.67 1.66 31.34 2.32 31 3 C21.76 3 12.52 3 3 3 C7.24802077 5.12401038 10.16761063 5.2376107 14.75 5.125 C15.79607422 5.11146484 15.79607422 5.11146484 16.86328125 5.09765625 C18.57566958 5.07419888 20.28788004 5.03833104 22 5 C22 5.33 22 5.66 22 6 C19.45868165 6.27767374 16.92090278 6.52260763 14.375 6.75 C13.66214844 6.83121094 12.94929688 6.91242188 12.21484375 6.99609375 C8.1097072 7.33504998 6.27096278 7.13818501 2.4765625 5.203125 C1.65929688 4.47609375 0.84203125 3.7490625 0 3 C0 2.01 0 1.02 0 0 Z " fill="#ED7785" transform="translate(42,87)"/>
<path d="M0 0 C1.875 1.125 1.875 1.125 3 3 C3.54400387 6.65259739 3.43774093 8.3433886 1.375 11.4375 C-1 13 -1 13 -4.0625 13 C-7 12 -7 12 -8.9375 10.25 C-10 8 -10 8 -9.875 5.4375 C-7.97946103 0.15707002 -5.52477171 -0.69059646 0 0 Z M-8 4 C-7.67028521 7.29714793 -7.3773161 8.6226839 -5 11 C-1.69316534 10.71016731 -1.69316534 10.71016731 1 9 C1.16666667 6 1.16666667 6 1 3 C-0.11166864 1.66812207 -0.11166864 1.66812207 -2.9375 1.8125 C-6.10892859 1.66721267 -6.10892859 1.66721267 -8 4 Z " fill="#E53753" transform="translate(160,78)"/>
<path d="M0 0 C1.22589844 0.01353516 1.22589844 0.01353516 2.4765625 0.02734375 C3.41628906 0.04474609 3.41628906 0.04474609 4.375 0.0625 C3.1891763 3.43753669 2.09926311 5.70972731 -0.625 8.0625 C1.685 8.0625 3.995 8.0625 6.375 8.0625 C6.045 8.7225 5.715 9.3825 5.375 10.0625 C3.08984375 10.6953125 3.08984375 10.6953125 0.3125 11.1875 C-0.60660156 11.35507813 -1.52570312 11.52265625 -2.47265625 11.6953125 C-3.53806641 11.87707031 -3.53806641 11.87707031 -4.625 12.0625 C-3.84116433 8.20107796 -2.19689568 6.04921756 0.375 3.0625 C-1.935 3.0625 -4.245 3.0625 -6.625 3.0625 C-6.625 2.4025 -6.625 1.7425 -6.625 1.0625 C-4.21954362 -0.14022819 -2.67503047 -0.03821472 0 0 Z " fill="#E32846" transform="translate(19.625,64.9375)"/>
<path d="M0 0 C0.99 0 1.98 0 3 0 C3 1.98 3 3.96 3 6 C3.99 6.33 4.98 6.66 6 7 C6 8.32 6 9.64 6 11 C11.01535052 10.67039784 11.01535052 10.67039784 15 8 C14.67 9.65 14.34 11.3 14 13 C10.7 13.66 7.4 14.32 4 15 C2.25293585 9.98668549 0.67779252 5.28678165 0 0 Z " fill="#E32240" transform="translate(32,16)"/>
<path d="M0 0 C0.763125 0.20625 1.52625 0.4125 2.3125 0.625 C3 3.4375 3 3.4375 3.3125 6.625 C1.875 8.5 1.875 8.5 0.3125 9.625 C-1.5625 9 -1.5625 9 -3.6875 7.625 C-4.9375 4.5 -4.9375 4.5 -5.6875 1.625 C-2.6875 -0.375 -2.6875 -0.375 0 0 Z " fill="#FDF3F4" transform="translate(102.6875,154.375)"/>
<path d="M0 0 C1 2 1 2 1.5 4.0625 C1.82307949 5.99240783 1.82307949 5.99240783 3 7 C5.90371979 7.13198726 8.480182 7.12644222 11.3125 6.4375 C14.6658847 5.89160017 17.57172399 6.34182886 20.9140625 6.84375 C23.19483418 7.14961539 23.19483418 7.14961539 26 6 C26 6.66 26 7.32 26 8 C23.04335481 9.4783226 20.25770263 9.06032783 17 9 C17 10.65 17 12.3 17 14 C16.34 13.67 15.68 13.34 15 13 C15.33 11.68 15.66 10.36 16 9 C13.56282742 9.27034634 13.56282742 9.27034634 11 10 C10.01 11.485 10.01 11.485 9 13 C9 11.68 9 10.36 9 9 C7.906875 9.061875 6.81375 9.12375 5.6875 9.1875 C2 9 2 9 0.0625 7.8125 C-1.34443368 5.41243666 -1.28792759 3.73531209 -1 1 C-0.67 0.67 -0.34 0.34 0 0 Z " fill="#E84A61" transform="translate(76,129)"/>
<path d="M0 0 C0.66 0 1.32 0 2 0 C1.34 2.31 0.68 4.62 0 7 C2.24362573 7.2284549 2.24362573 7.2284549 4.125 5 C5.053125 4.01 5.053125 4.01 6 3 C5.67 5.31 5.34 7.62 5 10 C5.66 10 6.32 10 7 10 C7.99 8.02 8.98 6.04 10 4 C10.66 4 11.32 4 12 4 C10.66511872 7.59391114 9.03977277 10.75490696 7 14 C5.70141061 13.43224464 4.41129559 12.84508337 3.125 12.25 C2.40570313 11.92515625 1.68640625 11.6003125 0.9453125 11.265625 C-1.39353296 9.74396651 -2.15719064 8.64882942 -3 6 C-1.625 2.75 -1.625 2.75 0 0 Z " fill="#E6425C" transform="translate(141,105)"/>
<path d="M0 0 C3.40667322 0.44824648 5.07914607 1.05276405 8 3 C8 3.99 8 4.98 8 6 C7.34 6 6.68 6 6 6 C5.34 5.01 4.68 4.02 4 3 C3.01 2.67 2.02 2.34 1 2 C1.474375 2.721875 1.94875 3.44375 2.4375 4.1875 C3.9483244 6.90698392 4.65861181 8.92750629 5 12 C4 13 4 13 1.6875 13.3125 C-1 13 -1 13 -3.3125 11.1875 C-5 9 -5 9 -5 6 C-4.34 6 -3.68 6 -3 6 C-2.7525 6.639375 -2.505 7.27875 -2.25 7.9375 C-1.18437567 10.18741541 -1.18437567 10.18741541 1.125 10.75 C1.74375 10.8325 2.3625 10.915 3 11 C2.2884375 9.9171875 2.2884375 9.9171875 1.5625 8.8125 C0.0516756 6.09301608 -0.65861181 4.07249371 -1 1 C-0.67 0.67 -0.34 0.34 0 0 Z " fill="#E42D4B" transform="translate(79,152)"/>
<path d="M0 0 C4.47400242 -0.36275695 4.47400242 -0.36275695 6.8125 1.25 C8 3 8 3 8 7 C7.34 7 6.68 7 6 7 C5.71125 6.195625 5.4225 5.39125 5.125 4.5625 C4.26737432 1.8673532 4.26737432 1.8673532 2 1 C2.350625 1.886875 2.70125 2.77375 3.0625 3.6875 C4.01755602 7.06203126 3.97151132 8.69686152 3 12 C0.125 11.6875 0.125 11.6875 -3 11 C-5 8 -5 8 -4.625 5.3125 C-4.41875 4.549375 -4.2125 3.78625 -4 3 C-3.67 3 -3.34 3 -3 3 C-2.731875 3.969375 -2.46375 4.93875 -2.1875 5.9375 C-1.795625 6.948125 -1.40375 7.95875 -1 9 C-0.01 9.33 0.98 9.66 2 10 C1.505 8.9171875 1.505 8.9171875 1 7.8125 C-0.00603529 4.98302573 -0.16977402 2.97104534 0 0 Z " fill="#E53551" transform="translate(45,122)"/>
<path d="M0 0 C1.06775224 1.96466413 2.06553465 3.96855359 3 6 C2.67 6.66 2.34 7.32 2 8 C1.38125 7.175 0.7625 6.35 0.125 5.5 C-0.926875 4.2625 -0.926875 4.2625 -2 3 C-2.66 3 -3.32 3 -4 3 C-3.01 5.31 -2.02 7.62 -1 10 C-1.99 9.67 -2.98 9.34 -4 9 C-4.6875 6.9375 -4.6875 6.9375 -5 5 C-6.32 5 -7.64 5 -9 5 C-8.484375 5.928125 -7.96875 6.85625 -7.4375 7.8125 C-6 11 -6 11 -7 14 C-11 7.375 -11 7.375 -11 4 C-9.5437455 3.32880451 -8.08492133 2.66318193 -6.625 2 C-5.81289063 1.62875 -5.00078125 1.2575 -4.1640625 0.875 C-2 0 -2 0 0 0 Z " fill="#E53652" transform="translate(35,97)"/>
<path d="M0 0 C1.875 1.0625 1.875 1.0625 3 3 C3.4375 6.5 3.4375 6.5 3 10 C1.375 12 1.375 12 -1 13 C-4.125 12.875 -4.125 12.875 -7 12 C-9.31282587 8.53076119 -9.42478586 7.07794425 -9 3 C-6.79086995 -0.68188342 -4.01844539 -0.50230567 0 0 Z M-6 2 C-8.264384 4.69155201 -8.264384 4.69155201 -7.75 7.0625 C-7.07467282 9.19476975 -7.07467282 9.19476975 -5 11 C-2.5 11.41666667 -2.5 11.41666667 0 11 C2.33391203 8.21885944 2.33391203 8.21885944 1.625 5.3125 C1.41875 4.549375 1.2125 3.78625 1 3 C-1.31 2.67 -3.62 2.34 -6 2 Z " fill="#E42F4C" transform="translate(131,129)"/>
<path d="M0 0 C-0.33 1.32 -0.66 2.64 -1 4 C-7.27 3.67 -13.54 3.34 -20 3 C-14.67312413 -2.32687587 -6.81031371 -1.03271151 0 0 Z " fill="#EE7F8E" transform="translate(151,42)"/>
<path d="M0 0 C0.90492187 0.02320313 1.80984375 0.04640625 2.7421875 0.0703125 C4.10730469 0.09738281 4.10730469 0.09738281 5.5 0.125 C6.19867188 0.14820313 6.89734375 0.17140625 7.6171875 0.1953125 C7.6171875 0.8553125 7.6171875 1.5153125 7.6171875 2.1953125 C3.1621875 2.6903125 3.1621875 2.6903125 -1.3828125 3.1953125 C-1.7128125 5.1753125 -2.0428125 7.1553125 -2.3828125 9.1953125 C0.9171875 9.1953125 4.2171875 9.1953125 7.6171875 9.1953125 C5.6171875 11.1953125 5.6171875 11.1953125 3.7421875 11.4609375 C3.0409375 11.45578125 2.3396875 11.450625 1.6171875 11.4453125 C0.9159375 11.45046875 0.2146875 11.455625 -0.5078125 11.4609375 C-2.3828125 11.1953125 -2.3828125 11.1953125 -4.3828125 9.1953125 C-4.6328125 5.6953125 -4.6328125 5.6953125 -4.3828125 2.1953125 C-2.3828125 0.1953125 -2.3828125 0.1953125 0 0 Z " fill="#E42B49" transform="translate(15.3828125,49.8046875)"/>
<path d="M0 0 C16.335 0.495 16.335 0.495 33 1 C32.67 1.66 32.34 2.32 32 3 C22.43 3 12.86 3 3 3 C6.465 4.98 6.465 4.98 10 7 C9.01 7.495 9.01 7.495 8 8 C6.0546875 7.109375 6.0546875 7.109375 3.875 5.75 C3.15054688 5.31171875 2.42609375 4.8734375 1.6796875 4.421875 C1.12539062 3.95265625 0.57109375 3.4834375 0 3 C0 2.01 0 1.02 0 0 Z " fill="#ED7483" transform="translate(94,87)"/>
<path d="M0 0 C-1.44253657 3.36591866 -3.33264727 5.51047079 -6 8 C-3.03 8.33 -0.06 8.66 3 9 C3 9.66 3 10.32 3 11 C-1.29 11 -5.58 11 -10 11 C-8.98379263 6.93517053 -8.41840592 6.02871927 -5.5625 3.25 C-4.94503906 2.63640625 -4.32757812 2.0228125 -3.69140625 1.390625 C-2 0 -2 0 0 0 Z " fill="#E74760" transform="translate(30,83)"/>
<path d="M0 0 C2.475 0.99 2.475 0.99 5 2 C5 5.3 5 8.6 5 12 C4.67 12 4.34 12 4 12 C3.67 18.27 3.34 24.54 3 31 C2.67 31 2.34 31 2 31 C1.97494385 30.16750732 1.9498877 29.33501465 1.92407227 28.47729492 C1.82887306 25.38537167 1.72964328 22.29361148 1.62768555 19.2019043 C1.56312994 17.20696681 1.5032217 15.21188071 1.44335938 13.21679688 C1.40146484 11.96318359 1.35957031 10.70957031 1.31640625 9.41796875 C1.27974854 8.26063232 1.24309082 7.1032959 1.20532227 5.91088867 C1.11671491 2.9356554 1.11671491 2.9356554 0 0 Z " fill="#E11435" transform="translate(175,19)"/>
<path d="M0 0 C0.66 0 1.32 0 2 0 C1.57312017 1.89825285 1.13300518 3.79353183 0.6875 5.6875 C0.44386719 6.74324219 0.20023438 7.79898438 -0.05078125 8.88671875 C-1.00070972 12.00232777 -2.09641997 14.36239168 -4 17 C-4.66 17 -5.32 17 -6 17 C-5.49487476 10.77012202 -2.67395877 5.54525767 0 0 Z " fill="#E32840" transform="translate(165,107)"/>
<path d="M0 0 C1.32 0.33 2.64 0.66 4 1 C4 1.66 4 2.32 4 3 C4.78375 2.505 5.5675 2.01 6.375 1.5 C9 0 9 0 11 0 C10.67 0.99 10.34 1.98 10 3 C6.9375 4.1875 6.9375 4.1875 4 5 C4 6.32 4 7.64 4 9 C5.65 9.33 7.3 9.66 9 10 C9 10.66 9 11.32 9 12 C4.545 11.01 4.545 11.01 0 10 C0.66 9.67 1.32 9.34 2 9 C2.16677282 5.58343976 2.16677282 5.58343976 2 2 C1.34 1.34 0.68 0.68 0 0 Z " fill="#E4304D" transform="translate(157,64)"/>
<path d="M0 0 C1.32 0.66 2.64 1.32 4 2 C3.67 4.31 3.34 6.62 3 9 C1.35 9.33 -0.3 9.66 -2 10 C-1.85950482 8.52031676 -1.71245174 7.04125484 -1.5625 5.5625 C-1.48128906 4.73878906 -1.40007812 3.91507812 -1.31640625 3.06640625 C-1 1 -1 1 0 0 Z " fill="#E7445E" transform="translate(156,64)"/>
<path d="M0 0 C6.24723226 -0.82200425 10.71317837 2.07448606 16 5 C15.67 5.66 15.34 6.32 15 7 C11.37149374 7 9.13832722 5.93046332 5.8125 4.5 C4.72582031 4.0359375 3.63914063 3.571875 2.51953125 3.09375 C1.68808594 2.7328125 0.85664063 2.371875 0 2 C0 1.34 0 0.68 0 0 Z " fill="#DD2E3F" transform="translate(163,14)"/>
<path d="M0 0 C2.00720923 0.28674418 4.0085944 0.61866701 6 1 C6 2.32 6 3.64 6 5 C0.25 6.125 0.25 6.125 -2 5 C-1.125 1.125 -1.125 1.125 0 0 Z " fill="#FBE5E7" transform="translate(87,32)"/>
<path d="M0 0 C0 1.32 0 2.64 0 4 C-2.31 4.33 -4.62 4.66 -7 5 C-7.33 3.35 -7.66 1.7 -8 0 C-4.71023192 -1.09658936 -3.28696233 -0.79953138 0 0 Z " fill="#FBE6E9" transform="translate(45,23)"/>
<path d="M0 0 C1.39025391 0.16242187 1.39025391 0.16242187 2.80859375 0.328125 C5.41330876 0.72714517 7.98424203 1.20720885 10.5625 1.75 C10.5625 2.08 10.5625 2.41 10.5625 2.75 C3.68881267 3.49464946 -2.60670852 3.93225237 -9.4375 2.75 C-6.17529217 -0.22820386 -4.33932634 -0.55370045 0 0 Z " fill="#E42D40" transform="translate(124.4375,1.25)"/>
<path d="M0 0 C0.33 0 0.66 0 1 0 C1.24794402 6.5705166 0.32388229 12.56971459 -1 19 C-3.19219402 16.63310671 -3.9871902 15.48272731 -4.07421875 12.203125 C-3.88279297 10.74132812 -3.88279297 10.74132812 -3.6875 9.25 C-3.50767578 7.77273437 -3.50767578 7.77273437 -3.32421875 6.265625 C-3.21722656 5.51796875 -3.11023438 4.7703125 -3 4 C-2.34 4 -1.68 4 -1 4 C-0.67 2.68 -0.34 1.36 0 0 Z " fill="#E8414F" transform="translate(178,61)"/>
<path d="M0 0 C-2.31962709 2.31962709 -4.46509652 3.30985217 -7.4375 4.6875 C-8.40558594 5.14511719 -9.37367187 5.60273438 -10.37109375 6.07421875 C-13 7 -13 7 -16 6 C-15.34 6 -14.68 6 -14 6 C-13.67 5.01 -13.34 4.02 -13 3 C-8.56575777 0.14941571 -5.2162083 -0.3129725 0 0 Z " fill="#FEFCFA" transform="translate(20,11)"/>
<path d="M0 0 C3.7952131 1.49097658 5.61042731 3.75700849 8 7 C6.35 6.67 4.7 6.34 3 6 C1.824375 7.485 1.824375 7.485 0.625 9 C-0.24125 9.99 -1.1075 10.98 -2 12 C-2.66 12 -3.32 12 -4 12 C-2.98209345 9.72928539 -2.22557171 8.19215368 -0.3125 6.5625 C0.120625 6.046875 0.55375 5.53125 1 5 C0.76956136 2.34533951 0.76956136 2.34533951 0 0 Z " fill="#E5324E" transform="translate(60,135)"/>
<path d="M0 0 C2.875 -0.125 2.875 -0.125 6 0 C8.36556709 2.36556709 8.58244041 3.74303521 9 7 C8 8 8 8 5.49609375 8.09765625 C3.98208984 8.08025391 3.98208984 8.08025391 2.4375 8.0625 C1.42558594 8.05347656 0.41367188 8.04445313 -0.62890625 8.03515625 C-1.41136719 8.02355469 -2.19382812 8.01195312 -3 8 C-2.67 7.01 -2.34 6.02 -2 5 C-0.576875 5.2784375 -0.576875 5.2784375 0.875 5.5625 C3.89868793 6.28686632 3.89868793 6.28686632 6 5 C6 4.34 6 3.68 6 3 C4.02 2.34 2.04 1.68 0 1 C0 0.67 0 0.34 0 0 Z " fill="#E21F3C" transform="translate(87,31)"/>
<path d="M0 0 C0 1.32 0 2.64 0 4 C-1 5 -1 5 -3.5625 5.0625 C-4.7690625 5.0315625 -4.7690625 5.0315625 -6 5 C-6.33 3.68 -6.66 2.36 -7 1 C-4.53721199 -0.231394 -2.7204945 -0.07159196 0 0 Z " fill="#FBE5E9" transform="translate(42,16)"/>
<path d="M0 0 C1.65 0 3.3 0 5 0 C4.67 1.98 4.34 3.96 4 6 C2.35 5.67 0.7 5.34 -1 5 C-0.67 3.35 -0.34 1.7 0 0 Z " fill="#F8CDD3" transform="translate(87,138)"/>
<path d="M0 0 C0.99 0 1.98 0 3 0 C4.65 2.97 6.3 5.94 8 9 C6.35 8.67 4.7 8.34 3 8 C0 2.20689655 0 2.20689655 0 0 Z " fill="#E42A40" transform="translate(22,127)"/>
<path d="M0 0 C3.93673644 1.31224548 6.22719294 2.91910327 9 6 C6.23547967 7.38226016 3.9538637 7.09525387 0.875 7.0625 C-0.22070312 7.05347656 -1.31640625 7.04445313 -2.4453125 7.03515625 C-3.70988281 7.01775391 -3.70988281 7.01775391 -5 7 C-5 6.67 -5 6.34 -5 6 C-0.545 5.505 -0.545 5.505 4 5 C3.01 4.319375 3.01 4.319375 2 3.625 C1.34 3.08875 0.68 2.5525 0 2 C0 1.34 0 0.68 0 0 Z " fill="#E9556C" transform="translate(135,116)"/>
<path d="M0 0 C1.32 0.33 2.64 0.66 4 1 C2.48021894 4.03956213 1.48202867 5.72283352 -1.5 7.4375 C-2.325 7.623125 -3.15 7.80875 -4 8 C-4.99 7.34 -5.98 6.68 -7 6 C-4.69 4.68 -2.38 3.36 0 2 C0 1.34 0 0.68 0 0 Z " fill="#F198A4" transform="translate(132,87)"/>
<path d="M0 0 C0.79921875 0.00902344 1.5984375 0.01804687 2.421875 0.02734375 C3.02515625 0.03894531 3.6284375 0.05054688 4.25 0.0625 C1.48776722 2.82473278 -0.95706617 2.64106291 -4.75 3.0625 C-5.08 4.3825 -5.41 5.7025 -5.75 7.0625 C-5.75 5.4125 -5.75 3.7625 -5.75 2.0625 C-6.41 2.0625 -7.07 2.0625 -7.75 2.0625 C-8.08 2.7225 -8.41 3.3825 -8.75 4.0625 C-8.75 3.0725 -8.75 2.0825 -8.75 1.0625 C-5.75519083 0.1901588 -3.11424089 -0.04579766 0 0 Z " fill="#E63B56" transform="translate(61.75,8.9375)"/>
<path d="M0 0 C3.96 0.33 7.92 0.66 12 1 C12 1.66 12 2.32 12 3 C5.375 3.125 5.375 3.125 2 2 C1.34 3.32 0.68 4.64 0 6 C0 4.02 0 2.04 0 0 Z " fill="#E11636" transform="translate(114,8)"/>
<path d="M0 0 C0.99 0.33 1.98 0.66 3 1 C2.67 2.65 2.34 4.3 2 6 C0.68 6.33 -0.64 6.66 -2 7 C-2.66 5.68 -3.32 4.36 -4 3 C-2.1875 1.4375 -2.1875 1.4375 0 0 Z " fill="#EE7F91" transform="translate(71,145)"/>
<path d="M0 0 C1.64826111 2.96687001 2.44271087 5.65626525 3 9 C-0.875 8.125 -0.875 8.125 -2 7 C-2.04063832 5.33382885 -2.042721 3.66611905 -2 2 C-1.34 2 -0.68 2 0 2 C0 1.34 0 0.68 0 0 Z " fill="#FCECEF" transform="translate(44,123)"/>
<path d="M0 0 C0.66 0.33 1.32 0.66 2 1 C1.67 1.99 1.34 2.98 1 4 C-3.04362487 5.8380113 -5.73449853 6.25455926 -10 5 C-6.76527494 2.84351662 -3.62848922 1.38542316 0 0 Z " fill="#F3A5AF" transform="translate(80,89)"/>
<path d="M0 0 C0.66 0 1.32 0 2 0 C2.33 2.31 2.66 4.62 3 7 C3.66 6.67 4.32 6.34 5 6 C5.33 8.64 5.66 11.28 6 14 C4.078125 13.3828125 4.078125 13.3828125 2 12 C1.171875 9.1796875 1.171875 9.1796875 0.75 5.875 C0.60046875 4.77929688 0.4509375 3.68359375 0.296875 2.5546875 C0.19890625 1.71164063 0.1009375 0.86859375 0 0 Z " fill="#E33C4F" transform="translate(2,74)"/>
<path d="M0 0 C-1 2 -1 2 -3.25 3.125 C-6.01613295 4.00513321 -8.12048351 4.1645438 -11 4 C-10.67 3.01 -10.34 2.02 -10 1 C-6.52674819 -0.1577506 -3.63932552 -0.06866652 0 0 Z " fill="#E21833" transform="translate(30,10)"/>
<path d="M0 0 C-0.375 1.9375 -0.375 1.9375 -1 4 C-3.70879335 5.35439668 -6.00933268 5.06501451 -9 5 C-9 4.34 -9 3.68 -9 3 C-2.25 0 -2.25 0 0 0 Z " fill="#E42D36" transform="translate(107,171)"/>
<path d="M0 0 C2.9375 0.75 2.9375 0.75 6 2 C6.875 4.125 6.875 4.125 7 6 C4.625 5.8125 4.625 5.8125 2 5 C0.6875 2.4375 0.6875 2.4375 0 0 Z " fill="#FBE5E9" transform="translate(75,157)"/>
<path d="M0 0 C-1.43429001 0.67354499 -2.87257057 1.33859701 -4.3125 2 C-5.51326172 2.556875 -5.51326172 2.556875 -6.73828125 3.125 C-9 4 -9 4 -12 4 C-11.67 3.01 -11.34 2.02 -11 1 C-6.90275533 -0.54613006 -4.18142349 -1.29227216 0 0 Z " fill="#E63B56" transform="translate(28,80)"/>
<path d="M0 0 C0.99 0 1.98 0 3 0 C3 4.95 3 9.9 3 15 C2.67 15 2.34 15 2 15 C1.67 11.37 1.34 7.74 1 4 C0.34 4.66 -0.32 5.32 -1 6 C-0.67 4.02 -0.34 2.04 0 0 Z " fill="#DF0628" transform="translate(89,7)"/>
<path d="M0 0 C0.66 0 1.32 0 2 0 C1.34 2.31 0.68 4.62 0 7 C0.99 7.33 1.98 7.66 3 8 C2.67 8.99 2.34 9.98 2 11 C0.35 10.01 -1.3 9.02 -3 8 C-1.125 2.25 -1.125 2.25 0 0 Z " fill="#E42F4C" transform="translate(141,105)"/>
<path d="M0 0 C2.625 0.375 2.625 0.375 5 1 C4.360625 1.309375 3.72125 1.61875 3.0625 1.9375 C1.06389179 2.8345163 1.06389179 2.8345163 0 4 C-0.04080783 5.99958364 -0.04254356 8.00045254 0 10 C-0.99 9.67 -1.98 9.34 -3 9 C-2.25 2.25 -2.25 2.25 0 0 Z " fill="#E7415C" transform="translate(159,48)"/>
<path d="M0 0 C2 1 2 1 3 3 C0.36 3.99 -2.28 4.98 -5 6 C-5 5.34 -5 4.68 -5 4 C-5.66 3.67 -6.32 3.34 -7 3 C-4.69631264 1.93347808 -2.35981813 0.93578995 0 0 Z " fill="#E63F52" transform="translate(18,12)"/>
<path d="M0 0 C0.66 0.66 1.32 1.32 2 2 C-0.31 2.33 -2.62 2.66 -5 3 C-5 2.34 -5 1.68 -5 1 C-7.31 1.33 -9.62 1.66 -12 2 C-8.01073455 -0.6595103 -4.60754647 -1.74769004 0 0 Z " fill="#E53748" transform="translate(51,4)"/>
<path d="M0 0 C0.99 0 1.98 0 3 0 C2.67 1.65 2.34 3.3 2 5 C0.68 5 -0.64 5 -2 5 C-2 2 -2 2 0 0 Z " fill="#FCEAED" transform="translate(116,141)"/>
<path d="M0 0 C-1.5830577 4.2742558 -4.50568404 6.26531794 -8 9 C-8 6 -8 6 -6.7578125 4.39453125 C-5.94957031 3.61142578 -5.94957031 3.61142578 -5.125 2.8125 C-4.59132813 2.28269531 -4.05765625 1.75289062 -3.5078125 1.20703125 C-2 0 -2 0 0 0 Z " fill="#E5334F" transform="translate(58,131)"/>
<path d="M0 0 C0.99 0 1.98 0 3 0 C3 1.98 3 3.96 3 6 C3.99 6.33 4.98 6.66 6 7 C4.02 7.99 4.02 7.99 2 9 C1.34 6.03 0.68 3.06 0 0 Z " fill="#E00B2D" transform="translate(32,16)"/>
<path d="M0 0 C3.66161578 1.22053859 4.16270474 2.36782304 6.1875 5.5625 C6.71730469 6.38878906 7.24710937 7.21507812 7.79296875 8.06640625 C8.19128906 8.70449219 8.58960937 9.34257812 9 10 C4.69879732 8.08835436 2.800865 5.73448667 0 2 C0 1.34 0 0.68 0 0 Z " fill="#E4304D" transform="translate(106,147)"/>
<path d="M0 0 C0.99 0.33 1.98 0.66 3 1 C2.175 1.763125 1.35 2.52625 0.5 3.3125 C-2.34055197 5.75434142 -2.34055197 5.75434142 -2 9 C-2.99 8.34 -3.98 7.68 -5 7 C-4.6189482 4.23737447 -4.16402868 3.15856106 -2.125 1.1875 C-1.42375 0.795625 -0.7225 0.40375 0 0 Z " fill="#E63B56" transform="translate(116,139)"/>
<path d="M0 0 C4.60853797 0.72008406 8.67237409 2.31295939 13 4 C10.35261084 5.4606285 9.10551666 6 6 6 C6 5.34 6 4.68 6 4 C4.02 3.01 2.04 2.02 0 1 C0 0.67 0 0.34 0 0 Z " fill="#E84A53" transform="translate(154,9)"/>
<path d="M0 0 C0.66 0 1.32 0 2 0 C4 3 4 3 4 6 C2.68 6 1.36 6 0 6 C-0.38218767 4.34385343 -0.71395102 2.67542976 -1 1 C-0.67 0.67 -0.34 0.34 0 0 Z " fill="#FCECEE" transform="translate(39,111)"/>
<path d="M0 0 C1.4606285 2.64738916 2 3.89448334 2 7 C2.31088368 8.67099977 2.64080332 10.33871537 3 12 C-2 5.63636364 -2 5.63636364 -2 1 C-1.34 0.67 -0.68 0.34 0 0 Z " fill="#E64855" transform="translate(14,108)"/>
<path d="M0 0 C1.32 0 2.64 0 4 0 C3.67 1.98 3.34 3.96 3 6 C2.01 6 1.02 6 0 6 C0 4.02 0 2.04 0 0 Z " fill="#FCEEF0" transform="translate(156,66)"/>
<path d="M0 0 C2.475 0.99 2.475 0.99 5 2 C5 5.3 5 8.6 5 12 C4.67 12 4.34 12 4 12 C3.566875 10.4221875 3.566875 10.4221875 3.125 8.8125 C2.22774807 5.77181289 1.23576581 2.91287656 0 0 Z " fill="#E52337" transform="translate(175,19)"/>
<path d="M0 0 C-0.6875 1.9375 -0.6875 1.9375 -2 4 C-4.625 4.75 -4.625 4.75 -7 5 C-5.64703851 0.94111554 -4.27479763 0 0 0 Z " fill="#E4283D" transform="translate(132,156)"/>
<path d="M0 0 C6.625 0.75 6.625 0.75 10 3 C8.25 4.125 8.25 4.125 6 5 C3.75 4.125 3.75 4.125 2 3 C2.33 2.67 2.66 2.34 3 2 C2.01 1.34 1.02 0.68 0 0 Z " fill="#E74553" transform="translate(143,6)"/>
<path d="M0 0 C6.52307692 -0.36923077 6.52307692 -0.36923077 8.9375 1.5 C9.288125 1.995 9.63875 2.49 10 3 C9.67 3.99 9.34 4.98 9 6 C7.88625 5.071875 7.88625 5.071875 6.75 4.125 C4.51198812 2.39562719 2.56260013 1.13893339 0 0 Z " fill="#FDF2F3" transform="translate(87,29)"/>
<path d="M0 0 C-2.93828597 2.50298434 -5.17902761 3.46930939 -9 4 C-8.34 3.34 -7.68 2.68 -7 2 C-7.33 1.34 -7.66 0.68 -8 0 C-4.71023192 -1.09658936 -3.28696233 -0.79953138 0 0 Z " fill="#E94652" transform="translate(101,176)"/>
<path d="M0 0 C0.66 0 1.32 0 2 0 C1.67 2.64 1.34 5.28 1 8 C0.67 7.34 0.34 6.68 0 6 C-0.66 6 -1.32 6 -2 6 C-1.34 4.02 -0.68 2.04 0 0 Z " fill="#E42C49" transform="translate(146,14)"/>
<path d="M0 0 C-0.3125 1.875 -0.3125 1.875 -1 4 C-1.99 4.66 -2.98 5.32 -4 6 C-4.66 5.34 -5.32 4.68 -6 4 C-2.25 0 -2.25 0 0 0 Z " fill="#E22537" transform="translate(147,141)"/>
<path d="M0 0 C3.78786597 0.5260925 6.17152224 1.38103911 9 4 C9 4.66 9 5.32 9 6 C5.06326356 4.68775452 2.77280706 3.08089673 0 0 Z " fill="#E4304D" transform="translate(131,125)"/>
<path d="M0 0 C1.98 0.99 1.98 0.99 4 2 C3.67 3.32 3.34 4.64 3 6 C2.34 6 1.68 6 1 6 C0.67 4.02 0.34 2.04 0 0 Z " fill="#FCE9EC" transform="translate(47,123)"/>
<path d="M0 0 C2.89932357 2.39509338 3.50168276 4.31245243 4 8 C3.01 8.495 3.01 8.495 2 9 C1.01 8.34 0.02 7.68 -1 7 C-0.01 7 0.98 7 2 7 C1.67 6.401875 1.34 5.80375 1 5.1875 C0 3 0 3 0 0 Z " fill="#E74760" transform="translate(41,110)"/>
<path d="M0 0 C2.475 0.99 2.475 0.99 5 2 C4.67 3.32 4.34 4.64 4 6 C4 5.01 4 4.02 4 3 C0.9254644 3.7763932 0.9254644 3.7763932 -1 6 C-0.67 4.02 -0.34 2.04 0 0 Z " fill="#E5324F" transform="translate(153,93)"/>
<path d="M0 0 C0.66 0.33 1.32 0.66 2 1 C1.67 1.99 1.34 2.98 1 4 C-0.98 4.33 -2.96 4.66 -5 5 C-5.33 4.34 -5.66 3.68 -6 3 C-4.02 2.67 -2.04 2.34 0 2 C0 1.34 0 0.68 0 0 Z " fill="#E11635" transform="translate(75,88)"/>
<path d="M0 0 C0.66 0.66 1.32 1.32 2 2 C1.01 2.495 1.01 2.495 0 3 C-0.65555119 5.52733235 -0.65555119 5.52733235 -1 8 C-1.99 6.68 -2.98 5.36 -4 4 C-2.68 2.68 -1.36 1.36 0 0 Z " fill="#E7445E" transform="translate(98,153)"/>
<path d="M0 0 C3.37462715 0.54723683 5.08235 1.0549 8 3 C8 3.99 8 4.98 8 6 C6 6 6 6 4 4.125 C3.34 3.42375 2.68 2.7225 2 2 C1.34 1.34 0.68 0.68 0 0 Z " fill="#E74861" transform="translate(79,152)"/>
<path d="M0 0 C0.99 0.33 1.98 0.66 3 1 C4.1875 4.0625 4.1875 4.0625 5 7 C4.34 7.66 3.68 8.32 3 9 C2.01 6.03 1.02 3.06 0 0 Z " fill="#E21B39" transform="translate(14,111)"/>
<path d="M0 0 C0.33 0.66 0.66 1.32 1 2 C1.66 2 2.32 2 3 2 C3 3.65 3 5.3 3 7 C2.01 7 1.02 7 0 7 C0 4.69 0 2.38 0 0 Z " fill="#E63B57" transform="translate(112,17)"/>
<path d="M0 0 C0 0.66 0 1.32 0 2 C-3.69541586 2.95024979 -6.30458414 2.95024979 -10 2 C-10 1.67 -10 1.34 -10 1 C-6.56484998 0.37542727 -3.50935186 0 0 0 Z " fill="#E63C57" transform="translate(67,15)"/>
</svg>
